<svg width="36" height="34" viewBox="0 0 36 34" fill="none" xmlns="http://www.w3.org/2000/svg">
<g filter="url(#filter0_d)">
<path d="M19.8022 5.16C18.8422 5.016 17.8102 4.944 16.7062 4.944C15.6262 4.944 14.5702 5.016 13.5382 5.16C14.1862 6.264 14.9542 7.164 15.8422 7.86C16.7302 8.556 17.8462 9.252 19.1902 9.948C20.5582 10.62 21.6622 11.244 22.5022 11.82C23.3662 12.396 24.3142 13.344 25.3462 14.664C26.3782 15.984 27.0262 17.364 27.2902 18.804C26.1382 20.292 24.6142 21.6 22.7182 22.728C20.8222 23.88 18.8782 24.648 16.8862 25.032C15.5422 24.912 13.8382 24.528 11.7742 23.88C9.73422 23.256 8.19822 22.944 7.16622 22.944C6.13422 22.944 5.10222 23.268 4.07022 23.916C4.50222 22.692 5.21022 21.156 6.19422 19.308H6.48222C8.01822 19.308 9.45822 19.548 10.8022 20.028C12.1702 20.508 13.4062 20.988 14.5102 21.468C15.6382 21.948 16.5382 22.188 17.2102 22.188C17.9062 22.188 18.4102 22.14 18.7222 22.044C18.7222 20.46 18.2302 19.152 17.2462 18.12C16.7182 17.568 16.2622 17.148 15.8782 16.86C15.5182 16.548 14.9542 16.128 14.1862 15.6L13.5742 15.168C11.9422 14.04 10.5982 12.9 9.54222 11.748C8.48622 10.572 7.71822 9.132 7.23822 7.428C8.00622 5.724 8.76222 4.248 9.50622 3C11.7862 2.448 14.1502 2.172 16.5982 2.172H18.1822C20.2462 2.172 22.6102 2.46 25.2742 3.036C24.8902 4.62 24.4222 6.048 23.8702 7.32C21.8542 7.464 20.2942 7.536 19.1902 7.536C19.4062 6.984 19.6102 6.192 19.8022 5.16Z" fill="#0C9800"/>
</g>
<defs>
<filter id="filter0_d" x="4.07019" y="2.172" width="31.22" height="30.86" filterUnits="userSpaceOnUse" color-interpolation-filters="sRGB">
<feFlood flood-opacity="0" result="BackgroundImageFix"/>
<feColorMatrix in="SourceAlpha" type="matrix" values="0 0 0 0 0 0 0 0 0 0 0 0 0 0 0 0 0 0 127 0"/>
<feOffset dx="4" dy="4"/>
<feGaussianBlur stdDeviation="2"/>
<feColorMatrix type="matrix" values="0 0 0 0 0 0 0 0 0 0 0 0 0 0 0 0 0 0 0.25 0"/>
<feBlend mode="normal" in2="BackgroundImageFix" result="effect1_dropShadow"/>
<feBlend mode="normal" in="SourceGraphic" in2="effect1_dropShadow" result="shape"/>
</filter>
</defs>
</svg>
